<svg width="43" height="14" viewBox="0 0 43 14" fill="none" xmlns="http://www.w3.org/2000/svg">
<path d="M0.328 13V1.8H2.92V10.888H8.536V13H0.328ZM11.0563 3.192C10.1283 3.192 9.50425 2.584 9.50425 1.8C9.50425 1.016 10.1283 0.407999 11.0563 0.407999C11.9843 0.407999 12.6083 0.983999 12.6083 1.752C12.6083 2.584 11.9843 3.192 11.0563 3.192ZM9.80825 13V4.392H12.3043V13H9.80825ZM21.0368 13L18.3168 9.624L17.1168 10.808V13H14.6208V1.128H17.1168V7.848L20.7648 4.392H23.7408L20.1568 8.04L24.0608 13H21.0368ZM32.1042 0.983999L29.2083 3.288H27.2563L29.4163 0.983999H32.1042ZM33.2403 8.728C33.2403 8.92 33.2083 9.192 33.1923 9.4H26.6803C26.9203 10.472 27.8323 11.128 29.1443 11.128C30.0563 11.128 30.7123 10.856 31.3043 10.296L32.6323 11.736C31.8323 12.648 30.6323 13.128 29.0803 13.128C26.1043 13.128 24.1683 11.256 24.1683 8.696C24.1683 6.12 26.1363 4.264 28.7603 4.264C31.2883 4.264 33.2403 5.96 33.2403 8.728ZM28.7763 6.152C27.6403 6.152 26.8243 6.84 26.6483 7.944H30.8883C30.7123 6.856 29.8963 6.152 28.7763 6.152ZM39.6093 9.112L39.1133 1.8H42.0893L41.5933 9.112H39.6093ZM40.6013 13.128C39.7053 13.128 39.0653 12.472 39.0653 11.672C39.0653 10.856 39.7053 10.248 40.6013 10.248C41.4973 10.248 42.1373 10.856 42.1373 11.672C42.1373 12.472 41.4973 13.128 40.6013 13.128Z" fill="#D6443A"/>
</svg>
